<svg width="20" height="20" fill="none" xmlns="http://www.w3.org/2000/svg"><circle cx="10" cy="10" r="10" fill="#000"/><mask id="a" style="mask-type:alpha" maskUnits="userSpaceOnUse" x="0" y="0" width="20" height="20"><circle cx="10" cy="10" r="10" fill="#000"/></mask><g mask="url(#a)" stroke="#8E3E57" stroke-width=".1"><path d="M1.522 7.931c-.098 1.042-1.36 2.913-1.979 3.72-.284.412-.767 1.493-.426 2.51.426 1.27 1.066 2.014 1.735 2.293.67.279 1.278.62 1.796.62.517 0 1.826-.187 2.86.31 1.036.495 1.736 1.084 2.314 2.758.578 1.673 1.491 1.704 1.917 1.828.426.124 1.796-.093 2.435-1.457.64-1.363.365-4.493 1.005-5.516.639-1.023 2.678-1.983 3.256-2.045.081-.01.25-.168.274-.713.03-.682-.365-2.107.73-2.944.877-.67 1.969-2.634 2.405-3.533.67-1.023-.913-4.37-2.861-2.913-1.948 1.456-3.622 1.673-4.17 1.456-.548-.217-1.248-2.634-1.278-2.82-.03-.186-.457-1.394-1.796-2.51C8.4-2.141 6.696-2.544 3.561-.901.426.74-.061 2.043-.274 3.252-.487 4.46 1.643 6.63 1.522 7.932z"/><path d="M2.402 8.104c-.093.954-1.295 2.67-1.885 3.409-.27.378-.73 1.369-.405 2.3.405 1.165 1.014 1.847 1.652 2.103.638.256 1.217.568 1.71.568.493 0 1.74-.17 2.725.284.985.455 1.652.994 2.203 2.528.55 1.534 1.42 1.563 1.826 1.676.406.114 1.71-.085 2.319-1.335.608-1.25.348-4.119.956-5.056.609-.938 2.551-1.819 3.102-1.875.077-.01.238-.154.26-.654.03-.625-.347-1.931.696-2.698.835-.614 1.875-2.415 2.29-3.239.638-.937-.87-4.005-2.724-2.67-1.855 1.335-3.45 1.534-3.971 1.335-.522-.199-1.189-2.415-1.218-2.585-.029-.17-.435-1.279-1.71-2.301C8.952-1.13 7.329-1.498 4.344.007 1.358 1.513.894 2.707.69 3.814c-.203 1.108 1.827 3.096 1.71 4.29z"/><path d="M2.522 8.104c-.098.954-1.36 2.67-1.979 3.409-.284.378-.767 1.369-.426 2.3.426 1.165 1.066 1.847 1.735 2.103.67.256 1.278.568 1.796.568.517 0 1.826-.17 2.86.284 1.036.455 1.736.994 2.314 2.528.578 1.534 1.491 1.563 1.917 1.676.426.114 1.796-.085 2.435-1.335.64-1.25.365-4.119 1.005-5.056.639-.938 2.678-1.819 3.256-1.875.081-.01.25-.154.274-.654.03-.625-.365-1.931.73-2.698.877-.614 1.969-2.415 2.405-3.239.67-.937-.913-4.005-2.861-2.67-1.948 1.335-3.622 1.534-4.17 1.335-.548-.199-1.248-2.415-1.278-2.585-.03-.17-.457-1.279-1.796-2.301C9.4-1.13 7.696-1.498 4.561.007 1.426 1.513.939 2.707.726 3.814.513 4.922 2.643 6.91 2.522 8.104z"/><path d="M2.522 8.69c-.098.91-1.36 2.549-1.979 3.254-.284.361-.767 1.307-.426 2.196.426 1.112 1.066 1.763 1.735 2.007.67.244 1.278.542 1.796.542.517 0 1.826-.163 2.86.271 1.036.434 1.736.95 2.314 2.414.578 1.464 1.491 1.491 1.917 1.6.426.108 1.796-.082 2.435-1.275.64-1.193.365-3.932 1.005-4.827.639-.894 2.678-1.735 3.256-1.79.081-.008.25-.146.274-.623.03-.596-.365-1.844.73-2.576.877-.586 1.969-2.305 2.405-3.091.67-.895-.913-3.824-2.861-2.55-1.948 1.275-3.622 1.465-4.17 1.275-.548-.19-1.248-2.305-1.278-2.467-.03-.163-.457-1.22-1.796-2.197C9.4-.123 7.696-.476 4.561.962 1.426 2.399.939 3.538.726 4.595.513 5.653 2.643 7.551 2.522 8.69z"/><path d="M3.402 8.862c-.093.825-1.295 2.306-1.885 2.944-.27.327-.73 1.183-.405 1.988.405 1.005 1.014 1.594 1.652 1.815.638.22 1.217.49 1.71.49.493 0 1.74-.146 2.725.246.985.393 1.652.859 2.203 2.184.55 1.325 1.42 1.35 1.826 1.447.406.098 1.71-.073 2.319-1.153.608-1.08.348-3.557.956-4.367.609-.81 2.551-1.57 3.102-1.62.077-.007.238-.132.26-.563.03-.54-.347-1.669.696-2.331.835-.53 1.875-2.086 2.29-2.797.638-.81-.87-3.46-2.724-2.306-1.855 1.153-3.45 1.324-3.971 1.153-.522-.172-1.189-2.086-1.218-2.233-.029-.147-.435-1.104-1.71-1.987C9.952.889 8.329.57 5.344 1.87 2.358 3.17 1.894 4.2 1.69 5.158c-.203.956 1.827 2.674 1.71 3.704z"/><path d="M5.281 8.448c-.088.781-1.23 2.185-1.79 2.79-.256.31-.693 1.12-.385 1.882.386.953.964 1.511 1.57 1.72.605.21 1.156.465 1.624.465.469 0 1.653-.14 2.589.232.936.372 1.57.814 2.093 2.07.523 1.254 1.349 1.277 1.735 1.37.385.093 1.624-.07 2.202-1.092.579-1.023.33-3.37.91-4.137.577-.767 2.422-1.488 2.946-1.534.073-.008.225-.126.247-.535.028-.511-.33-1.58.661-2.208.793-.502 1.781-1.976 2.176-2.65.605-.767-.826-3.277-2.589-2.184-1.762 1.092-3.277 1.255-3.772 1.092-.496-.163-1.13-1.976-1.157-2.115-.027-.14-.413-1.046-1.624-1.883-1.212-.837-2.754-1.139-5.59.093C4.29 3.056 3.85 4.032 3.656 4.94c-.193.906 1.735 2.533 1.624 3.51z"/><path d="M6.281 8.035c-.088.737-1.23 2.063-1.79 2.634-.256.292-.693 1.058-.385 1.778.386.9.964 1.427 1.57 1.624.605.198 1.156.44 1.624.44.469 0 1.653-.132 2.589.219.936.351 1.57.768 2.093 1.954.523 1.185 1.349 1.207 1.735 1.295.385.088 1.624-.066 2.202-1.032.579-.966.33-3.183.91-3.907.577-.725 2.422-1.405 2.946-1.45.073-.006.225-.118.247-.504.028-.483-.33-1.493.661-2.086.793-.474 1.781-1.865 2.176-2.502.605-.724-.826-3.095-2.589-2.063-1.762 1.031-3.277 1.185-3.772 1.031-.496-.153-1.13-1.866-1.157-1.997-.027-.132-.413-.988-1.624-1.778-1.212-.79-2.754-1.076-5.59.087C5.29 2.942 4.85 3.864 4.656 4.72c-.193.856 1.735 2.393 1.624 3.315z"/></g><path fill-rule="evenodd" clip-rule="evenodd" d="M7.916 9.036c-.725.145-1.057.611-1.052 1.48.005.944.483 1.424 1.412 1.42.906-.002 1.374-.548 1.331-1.554-.018-.43-.045-.538-.2-.786-.283-.459-.88-.682-1.49-.56zm2.95.001c-.64.131-1.013.641-1.013 1.387 0 .23.026.509.057.62.16.554.645.894 1.28.894.651 0 1.027-.204 1.247-.676.205-.439.199-.45-.24-.45-.33 0-.385.016-.419.12-.121.383-.674.488-.976.186-.308-.307-.294-1.01.026-1.31.278-.262.871-.134.957.205.034.138.061.147.415.147.209 0 .38-.023.38-.05 0-.13-.15-.473-.284-.653-.259-.348-.885-.532-1.43-.42zm5.595-.008c-.524.093-.793.347-.844.796-.06.53.224.798 1.058 1 .441.108.56.159.577.25.064.335-.802.37-.908.037-.034-.107-.088-.122-.422-.122h-.382l.038.163c.123.53.496.785 1.16.795.535.008.881-.092 1.097-.318.143-.15.165-.219.165-.532 0-.349-.008-.368-.248-.581-.207-.183-.33-.237-.735-.318-.44-.088-.704-.216-.704-.34 0-.125.207-.232.447-.232.22 0 .28.027.392.178.118.16.164.177.454.177h.323l-.033-.243c-.07-.526-.704-.84-1.435-.71zm-14.453.667c.005.37.012 1.029.015 1.466l.007.794.95-.033c.905-.031.96-.04 1.15-.186.38-.289.424-.845.09-1.125-.207-.175-.209-.184-.06-.343.162-.175.208-.523.1-.779-.148-.356-.35-.422-1.371-.445L2 9.025l.008.67zm2.746-.07a446.976 446.976 0 000 2.134l.002.178h1.956v-.652H5.467V9.034h-.711l-.002.593zm8.121.86v1.452h.712v-.313c0-.257.03-.35.165-.512l.166-.199.383.51.382.508.43.003c.236.002.43-.01.43-.027 0-.016-.266-.369-.59-.784-.498-.637-.578-.768-.515-.844l.53-.634c.251-.299.456-.559.456-.578 0-.018-.194-.034-.431-.034h-.43l-.474.606-.473.606-.017-.606-.017-.606h-.707v1.452zm-9.328-.735c.12.1.101.336-.032.407-.063.034-.263.061-.444.061h-.33v-.256c0-.142.012-.27.027-.284.054-.054.7.005.78.072zm4.91-.065c.143 0 .379.302.419.537.102.61-.17 1.065-.634 1.061-.273-.002-.38-.06-.54-.293-.146-.21-.137-.801.015-1.05.114-.188.415-.331.585-.28a.636.636 0 00.155.025zm-4.883 1.069c.13.07.157.347.044.46-.041.042-.24.071-.474.071H2.74v-.592h.36c.197 0 .41.027.473.06z" fill="#fff"/></svg>