<svg xmlns="http://www.w3.org/2000/svg" viewBox="0 0 2000 2000"><defs><style>.cls-2{fill:#fff}</style></defs><g id="Layer_2" data-name="Layer 2"><g id="Layer_1-2" data-name="Layer 1"><circle cx="1000" cy="1000" r="1000" fill="#26bc34"/><path class="cls-2" d="M1426.62 1043.8c74.51-97.74 63.59-209.49 2.82-287.33-55.48-71-181.14-133.32-227.22-152.3 10.13-6.73 37-21.2 59.43-29.13-164.88-34-322.47 10.39-322.47 10.39 120.1 66.33 197.35 149.82 223.35 180-1.54-25.82-7.11-61.84-7.11-61.84s118.65 39.36 211.09 132c55.81 56 52.59 119.76 34.31 173.66C1232.38 810 855 784.26 855 602.91c0-106.26 102.77-141.1 207.3-141.1 127.17 0 219.49 24.39 306.59 90.58 26.87 21.48 99.72 63.07 95.62 143.29 9.7-21.31 33.24-94.77-55.56-179.87a43.14 43.14 0 00-3.41-3c-81.33-70.38-183.82-138.14-367.64-138.14-310.08 0-475.58 137.62-475.58 334.47 0 72.82 20.14 130.15 53.2 176.82-70 96.4-58.35 205.43 1.28 281.8 55.48 71 181.14 133.32 227.22 152.3-10.13 6.73-37 21.2-59.44 29.14 164.89 34 322.48-10.4 322.48-10.4-120.1-66.33-197.35-149.81-223.35-180 1.54 25.82 7.11 61.84 7.11 61.84s-118.65-39.36-211.09-132c-54-54.15-52.74-115.65-36-168.41 170.42 179.86 549.24 182.25 549.24 399.63 0 75.42-93.72 135.73-253.74 121.88-75.35-6.53-150.68-25.73-217.43-51.56a21.55 21.55 0 00-28.06 12.64 21.52 21.52 0 0011.4 27 724.34 724.34 0 0097 35.53 15.66 15.66 0 0110.77 19.24 15.71 15.71 0 01-19.2 11c-70.95-18.87-141.89-54.94-199.27-94.76a17.75 17.75 0 10-20.3 29.13c60.9 42.55 141 81 211.21 99.65a15 15 0 0110.77 18.11 15 15 0 01-18.67 10.85 652.26 652.26 0 01-134.81-54.34 18 18 0 00-24.87 8.12 18 18 0 007.18 23.18c92 54 212.72 91.65 357.21 91.65 273.5 0 498.23-146.33 498.23-395.44-.03-75.74-20.39-136.99-53.77-187.94z"/><path class="cls-2" d="M584.21 1468.46c-35-20.53-66.16-46.55-66.69-47a20.16 20.16 0 00-25.93 30.88c1.37 1.15 34.08 28.51 72.22 50.89a20.16 20.16 0 1020.4-34.78zm-54.83-76.39a20.16 20.16 0 0012.81-35.74c-31.35-25.77-58.05-56.34-58.51-56.86a20.16 20.16 0 10-30.45 26.43c1.18 1.35 29.19 33.5 63.36 61.58a20.09 20.09 0 0012.79 4.59zm57.76-34.59c.73.65 18.49 16 56.8 38.5a20.16 20.16 0 0020.41-34.78c-34.6-20.3-50.58-34-50.73-34.13a20.16 20.16 0 00-26.48 30.41z"/></g></g></svg>