<svg width="1076" height="1077" fill="none" xmlns="http://www.w3.org/2000/svg"><path d="M305.228 380.541l-42.144 40.702-20.309 71.934 20.309 34.375 18.741 23.469v20.329l-7.846 75.031v100.071l15.647 21.899 15.602 35.945 17.216 39.086 32.773 28.182 48.42 10.949 60.973-10.949 109.304-28.182 131.227-171.961 60.928-109.495-28.11-140.683-143.736-107.88-98.409-25.04-92.177 42.183-98.409 50.08v-.045z" fill="#FFB133"/><path fill-rule="evenodd" clip-rule="evenodd" d="M493.481 94.192c-64.246 15.616-110.962 65.966-146.605 157.96-7.621 19.745-12.688 26.969-32.952 47.118-27.887 27.823-42.009 52.908-46.179 82.211a118.088 118.088 0 01-9.325 32.086 62.365 62.365 0 00-6.59 25.713c0 11.219-1.794 15.258-10.94 24.367-12.508 12.565-13.674 21.137-5.111 38.234 3.183 6.372 6.725 15.616 7.936 20.553 1.21 4.936 9.325 16.469 18.023 25.713l15.871 16.828-5.38 21.136a285.788 285.788 0 00-5.111 99.802c3.003 20.777 2.824 27.195-1.345 41.285-6.636 22.303-3.901 32.131 12.598 45.683 10.85 8.885 14.705 14.809 18.83 28.989 13.629 46.895 33.266 67.627 81.059 85.532 10.042 3.77 25.151 13.283 35.418 22.258 23.851 21.002 37.436 27.419 93.881 44.516 26.362 7.988 54.786 17.95 63.125 22.213 8.384 4.263 16.499 7.719 17.978 7.719 1.525 0 5.201-11.802 8.25-26.207 5.514-26.342 21.744-61.255 29.724-63.902 3.094-1.032 3.587.538 1.928 6.058a212.902 212.902 0 00-4.035 28.989l-1.793 21.54 24.658-25.938c13.585-14.27 45.058-42.855 69.94-63.543 82.449-68.434 110.694-101.417 124.951-145.843 10.401-32.31 8.07-77.634-6.053-117.349-8.967-25.264-10.267-33.431-12.643-79.742-2.824-55.197-7.756-79.878-24.658-123.631-19.234-49.811-52.007-96.392-88.277-125.336-11.791-9.424-21.43-19.431-21.43-22.258 0-2.827-2.242-14.36-5.022-25.668-22.058-89.75-108.183-147.146-190.721-127.042v-.044zm36.898 245.197c13.809 12.43 29.68 37.066 26.138 40.611-.628.629-7.756-2.782-15.871-7.539-14.481-8.481-15.243-8.526-36.988-4.936-12.194 2.02-44.429 10.321-71.643 18.354-53.262 15.751-55.056 15.706-55.145-2.333-.09-10.411 15.602-25.579 35.866-34.734 12.733-5.789 22.552-7.314 53.128-8.257 20.623-.673 38.781-2.468 40.395-4.038 1.793-1.661.045-5.834-4.484-10.681l-7.397-7.898 9.953 3.501c5.47 1.884 17.171 9.962 26.003 17.95h.045zm-174.043 52.952c1.166 4.712 5.515 13.822 9.729 20.194 7.711 11.802 9.549 19.7 5.29 22.213a74.864 74.864 0 01-13.001 3.68c-9.191 1.974-10.312 1.57-8.519-3.052 1.166-3.141-.538-8.526-4.259-13.283-7.622-9.648-8.07-24.905-1.076-32.669 7.039-7.808 9.415-7.18 11.836 2.872v.045zm-37.525 20.194c2.69 3.814 4.886 8.526 4.886 10.411 0 1.885-10.625 6.776-23.627 10.86-20.265 6.327-24.075 6.731-26.541 2.916-4.484-7.09-3.677-9.154 7.666-20.507 13.136-13.149 29.859-14.809 37.66-3.68h-.044zm247.39 7c2.69 6.911-4.08 34.464-13.181 53.671-4.483 9.424-15.826 25.489-25.331 35.72-13.002 14.091-15.781 18.623-11.388 18.623 10.402.045 29.411 6.507 27.618 9.424-.942 1.571-6.636 3.77-12.598 4.892-5.963 1.121-11.567 3.141-12.419 4.487-.807 1.391 7.487 8.975 18.471 16.828 20.623 14.719 39.05 36.663 47.254 56.229l4.663 11.218-13.271-9.199a86.476 86.476 0 00-22.282-11.309l-8.966-2.109 7.98 13.687c4.394 7.584 9.415 17.412 11.074 21.899l3.048 8.078-11.342-5.744a58.33 58.33 0 00-22.014-5.834h-10.76l14.526 15.527c18.023 19.296 18.472 26.925 2.78 44.426l-11.746 12.969 16.454-1.616c9.19-.897 19.054-3.949 22.371-6.955 5.649-5.116 6.053-5.026 8.07 1.436 2.646 8.257-.672 32.31-6.321 45.862-5.784 13.866-28.424 37.695-43.533 45.772-10.76 5.789-17.754 6.777-47.03 6.777-30.711 0-36.226-.898-52.142-8.347l-17.843-8.347-.897 15.392-.941 15.392-18.741-12.565-18.785-12.475-.986 9.469c-.538 5.205 1.928 20.911 5.469 34.957 3.542 14.001 5.918 26.028 5.246 26.656-4.214 4.218-21.879-6.103-38.019-22.348-22.954-23.021-28.2-37.695-25.42-71.082 1.838-21.674 1.748-21.988-5.022-19.834-18.157 5.833-26.496 5.474-28.648-1.347-2.914-9.199 7.173-24.367 25.465-38.143 43.22-32.625 98.813-45.414 182.024-41.959l48.599 2.02-14.033-6.731c-20.937-9.963-59.404-15.931-98.409-15.258-18.92.314-36.898.449-39.991.18-8.474-.629-14.661-19.162-15.02-44.875-.179-12.565-1.3-26.297-2.555-30.605-2.018-7.046-2.735-6.238-7.756 8.75-4.259 12.655-5.335 23.919-4.484 47.747l1.032 31.144-29.68 14.046c-16.319 7.673-31.428 14.001-33.625 14.001-7.622.044-10.715-16.604-9.146-49.991 1.435-31.099 6.725-53.267 16.812-70.364 3.363-5.744 4.484-5.879 14.033-1.975 16.14 6.597 27.169 7.764 32.46 3.366 4.214-3.5 3.586-4.488-4.753-8.033-18.606-7.853-19.278-31.996-1.076-38.951 10.895-4.129 21.7-1.391 26.004 6.641 4.573 8.527 9.28 4.802 9.415-7.359.224-22.707 24.075-34.554 41.65-20.688 12.105 9.514 11.477 27.105-1.48 41.869-5.738 6.596-7.98 11.039-5.469 11.039 7.845 0 24.882-12.565 30.217-22.168 9.639-17.501 11.522-18.713 34.925-23.56 12.778-2.692 26.811-6.731 31.16-8.975 17.664-9.199 31.383-32.31 31.383-52.952 0-7.763 2.78-14.136 9.684-21.989 10.536-12.026 14.526-13.552 17.216-6.507zm-121.364 14.181c1.031 13.462-9.101 31.278-17.799 31.278-8.07 0-10.446-4.443-10.446-19.745 0-23.425 26.452-34.24 28.245-11.533zm271.242 16.918l10.67 10.635v34.105c0 39.311-4.932 58.023-18.74 71.217-13.585 13.058-19.951 9.064-17.216-10.86 1.793-12.924.986-17.456-4.618-26.521-3.721-6.058-6.277-13.463-5.739-16.469 1.928-9.873 10.222-5.834 16.947 8.212 8.205 17.097 11.298 13.014 10.088-13.508-.673-15.526.358-21.405 4.483-26.027a24.097 24.097 0 005.38-7.808c0-3.411-22.417-9.334-34.701-9.155l-12.105.18 4.663-9.065c9.594-18.533 25.42-20.463 40.933-4.936h-.045zm-334.143 16.065c4.976 7.629 4.887 8.302-2.69 16.424-4.349 4.667-9.505 11.668-11.522 15.572-5.291 10.276-9.595 5.654-9.595-10.232 0-27.822 12.419-39.176 23.762-21.764h.045zm-90.563 15.527c5.245 13.642-10.761 46.041-19.279 38.996-2.331-1.93-5.111-7.763-6.277-12.969-1.748-7.943-.448-11.174 8.25-20.104 11.387-11.802 14.66-12.879 17.306-5.923zm102.892 34.598c-7.039 7.046-6.052 11.758 3.452 16.155 9.37 4.353 16.589.718 16.589-8.302 0-11.667-11.657-16.244-20.041-7.853zm-52.814 19.072c-3.586 3.59-2.286 12.565 2.242 16.424 3.497 2.872 5.784 1.885 10.984-4.756 3.587-4.578 6.546-9.559 6.546-11.04 0-3.141-16.723-3.679-19.772-.628zm68.371 170.256a235.627 235.627 0 00-29.679 6.282c-15.468 4.892-40.799 18.758-40.799 22.303 0 3.77 33.356.314 56.266-5.789 22.865-6.103 56.221-20.059 56.221-23.514 0-3.276-16.454-3.007-42.009.718z" fill="#000"/><path d="M453.623 225.767c-37.481 13.777-62.453 59.953-70.254 81.314 20.265-20.328 79.669-48.465 115.58-51.606 10.94-.898-23.447-10.95-59.359-3.142 10.939-10.904 17.171-27.687 14.033-26.566zm183.01 6.238c-1.525 1.616 4.707 28.72 4.707 42.272l34.387 28.137-4.707-21.899 23.448 4.667c-3.139-9.379-23.448-17.187-23.448-20.328 0-20.015-8.832-36.484-14.033-42.183v29.707c-8.339-7.314-17.53-23.155-20.31-20.328l-.044-.045zm143.421 295.053c-2.017.898-5.693 28.496-10.446 41.195l22.327 38.413 3.273-22.168 20.31 12.61c.358-9.872-15.916-24.322-14.795-27.239 6.994-18.803 4.483-37.246 1.614-44.471l-10.402 27.822c-5.245-9.782-8.294-27.822-11.881-26.162zm-109.193-98.762l-98.495-38.56c-2.421-.948-5.148.239-6.091 2.651-.942 2.412.256 5.135 2.678 6.083l98.495 38.561c2.422.948 5.148-.239 6.091-2.651.943-2.412-.256-5.136-2.678-6.084zM330.602 452.52c-39.364 0-70.837 19.79-81.597 29.707 0 63.947 42.906 66.55 64.067 59.414 31.204-10.59 29.5-89.121 17.485-89.121h.045z" fill="#FF1646"/><path d="M319.66 499.594l-11.433 17.142c-3.945 5.969.449 13.373 7.129 10.86a28.155 28.155 0 0012.329-8.347 31.598 31.598 0 005.29-15.93c.852-8.078-8.832-10.501-13.315-3.725z" fill="#000"/><path d="M272.467 518.892c6.069 1.65 13.374-5.794 16.315-16.629 2.941-10.834.406-20.955-5.664-22.605-6.069-1.651-13.373 5.794-16.314 16.628-2.942 10.834-.406 20.955 5.663 22.606z" fill="#fff"/><path d="M505.184 396.248c-51.244 0-92.132 20.822-106.255 31.233 0 67.222 60.032 68.479 87.515 60.985 51.558-14.091 34.387-92.263 18.74-92.263v.045z" fill="#FF1646"/><path d="M492.492 443.051l-13.001 20.732c-3.766 5.969.582 13.194 7.173 10.77a29.807 29.807 0 0013.853-9.558c3.318-4.398 4.932-11.219 5.515-18.354.762-8.257-9.146-10.59-13.54-3.59z" fill="#000"/><path d="M425.088 463.331c7.527 2.048 16.013-5.076 18.954-15.91 2.941-10.834-.776-21.277-8.303-23.324-7.527-2.047-16.013 5.076-18.954 15.911-2.941 10.834.776 21.276 8.303 23.323z" fill="#fff"/></svg>