<svg width="18" height="18" fill="none" xmlns="http://www.w3.org/2000/svg"><path d="M17.5 3c0 .195-.118.461-.517.775-.393.31-.992.61-1.777.872-1.565.522-3.76.853-6.206.853-2.447 0-4.64-.331-6.206-.853-.785-.262-1.384-.562-1.777-.872C.618 3.461.5 3.195.5 3c0-.195.118-.461.517-.775.393-.31.992-.61 1.777-.872C4.36.831 6.554.5 9 .5c2.447 0 4.64.331 6.206.853.785.262 1.384.562 1.777.872.399.314.517.58.517.775z" stroke="#64ACFF"/><path fill-rule="evenodd" clip-rule="evenodd" d="M2.292 9C.867 9.53 0 10.232 0 11c0 1.657 4.03 3 9 3s9-1.343 9-3c0-.768-.867-1.47-2.292-2-.525.196-1.126.368-1.788.513.406.094.784.2 1.128.314.756.252 1.296.53 1.626.79.162.128.248.232.29.302.021.032.03.055.033.066L17 11l-.003.015a.292.292 0 01-.032.066c-.043.07-.13.174-.291.301-.33.26-.87.539-1.626.79-1.502.501-3.64.828-6.048.828s-4.546-.327-6.048-.827c-.756-.252-1.296-.53-1.626-.79a1.235 1.235 0 01-.29-.302.295.295 0 01-.033-.066A.053.053 0 011 11l.003-.015a.295.295 0 01.032-.066c.043-.07.13-.174.291-.301.33-.26.87-.539 1.626-.79.344-.115.722-.22 1.128-.315A13.254 13.254 0 012.292 9z" fill="#64ACFF"/><path fill-rule="evenodd" clip-rule="evenodd" d="M2.292 13C.867 13.53 0 14.232 0 15c0 1.657 4.03 3 9 3s9-1.343 9-3c0-.768-.867-1.47-2.292-2-.525.196-1.126.368-1.788.512.406.095.784.2 1.128.315.756.252 1.296.53 1.626.79.162.128.248.232.29.302.021.032.03.055.033.066L17 15l-.003.015a.292.292 0 01-.032.066c-.043.07-.13.174-.291.301-.33.26-.87.539-1.626.79-1.502.501-3.64.828-6.048.828s-4.546-.327-6.048-.827c-.756-.252-1.296-.53-1.626-.79a1.235 1.235 0 01-.29-.302.295.295 0 01-.033-.066A.053.053 0 011 15l.003-.015a.295.295 0 01.032-.066c.043-.07.13-.174.291-.301.33-.26.87-.539 1.626-.79.344-.115.722-.22 1.128-.316A13.252 13.252 0 012.292 13zM2.292 5C.867 5.53 0 6.232 0 7c0 1.657 4.03 3 9 3s9-1.343 9-3c0-.768-.867-1.47-2.292-2-.525.196-1.126.368-1.788.513.406.094.784.2 1.128.314.756.252 1.296.53 1.626.79.162.128.248.232.29.302.021.033.03.055.033.066L17 7l-.003.015a.293.293 0 01-.032.066c-.043.07-.13.174-.291.301-.33.26-.87.539-1.626.79C13.546 8.674 11.408 9 9 9s-4.546-.327-6.048-.827c-.756-.252-1.296-.53-1.626-.79a1.236 1.236 0 01-.29-.302.296.296 0 01-.033-.066A.053.053 0 011 7l.003-.015a.296.296 0 01.032-.066c.043-.07.13-.174.291-.301.33-.26.87-.539 1.626-.79.344-.115.722-.22 1.128-.315A13.254 13.254 0 012.292 5z" fill="#FF7DA0"/></svg>