<svg version="1.1" id="katman_1" xmlns="http://www.w3.org/2000/svg" x="0" y="0" viewBox="0 0 1417.3 1417.3" xml:space="preserve"><style>.st2{fill:#9f9f9f}.st4{fill:#fcfcfc}.st5{fill:#dcdcdc}.st6{fill:#f8f8f8}.st7{fill:#dadada}.st8{fill:#a7d43e}</style><path d="M1228 339.4c-1.6 81.8-22.2 151.9-83.6 205.3-8.4 7.3-2.4 15.2-1.5 22.6 12.7 103.7 8.6 204.3-53.5 294.3-8.5 12.3-17.9 24.8-29.4 34.1-18.2 14.8-26 29.3-25.2 55.3 3.5 109-54.2 155-163.8 133-27.1-5.5-48.5 8-71.6 14.6-67.9 19.4-132.8 9.3-196.8-14.8-11.5-4.3-20.8.2-31 1.5-119.3 15.5-173.1-37.4-159.6-158 .6-5.5 0-9.2-4.4-12.7-78.6-63.6-105.5-150.3-109-247.1-1.3-34.8-.6-69.6 6.6-103.9 2.3-10.8-.7-17.3-9.3-24.7-74.5-64.1-101.9-217.6-55.1-304.2 25.9-47.9 81.2-65.1 152.6-45.9C473 210.2 533.2 261.4 588 319.6c13.2 14 26.8 9.2 40.4 8.5 61.7-3.1 123.6-4.7 185.1.6 26.2 2.3 42.3-6.3 59.8-24 58.2-58.7 122.4-108.4 207.6-121.6 77.9-12.1 132.9 28.6 143.2 107.2 2.5 17.4 2.9 35 3.9 49.1zm-440.1 704c11.6-7.8 7.1-15.6-.9-22.1-13.5-11.1-30.1-19.4-40.9-32.5-17.6-21.4-30-17.8-46.1 1.1-11.1 13-25.6 23.2-38.5 34.6-10.1 4.2-10.6 13.1-1.3 21.5 22.4 20 106.2 18.3 127.7-2.6zm27.5-325.2c-60-33.2-120.4-33.4-181.1-1.9-13.7 8.7-29.1 15.4-40.7 26.3-65.2 61-119.6 128.4-124 223.4-7.3 51.9 22.1 86 73.6 81.4 50.6-4.5 94.4-28.2 133.7-59.1 45-35.3 45.1-73.2 2.1-111-7.3-12.2-14.6-24.3-21.9-36.5 2.3-21.5 16.5-26.6 35.3-26.3 21.9.3 43.8.1 65.8.2 19.2.1 31.8 7.3 30 29.1-6.1 10.6-12.3 21.3-18.4 31.9-36.1 21.6-44.6 65.8-16.5 96.2 36.6 39.6 84.2 60.5 135.7 73.8 56.3 14.4 98-24.4 87.6-81.9 4.9-43.9-16.4-79.8-36.7-115.4-30.5-53.6-67.5-101.6-124.5-130.2zm30.5-325.8c-81.9-21.1-163.8-21.1-245.6.2-25 4.6-48.8 12.4-71.2 24.5-25.6 8.6-46.4 24.5-65.8 42.7-5.7 5.3-11.3 10.6-17 15.9 2-8.2 3.8-16.5 6-24.7 6.8-25.5 26.5-43.5 38.2-66.2 16.7-11.7 33.6-23.1 50.1-35.2 4.2-3.1-.4-5.5-2.7-7.5-45.6-40.2-91.8-79.8-146.5-107.4-32.3-16.3-66.4-22.2-93.6 7.8-42.7 46.9-39.8 103.3-27.3 160.5 9.5 49.8 36.5 88.3 76.9 117.6 7.8 5.7 10.7 11 9.2 20.1-8.3 51.3-12.7 102.9-6.2 154.8 6.6 53.1 15.9 105.4 50.7 149 7.9 16.2 21.7 27.2 34.5 39 8 7.4 12.1 8.5 17.8-3.2 17.1-35.7 35.9-70.5 63.1-99.9 4.5-4.9 3.4-5.9-2.4-7.5-10-2.8-19.7-6.7-29.5-10.1 9.1-3.7 18.2-7.5 27.3-11.2.8-.3 1.6-.5 2.2-1 6.5-4.6 13.1-9.3 19.6-13.9-6.9-.5-13.9-.6-20.8-1.7-14.4-2.3-29.1-3.9-43.1-8-12.3-3.6-19.9-12.7-17.6-26.9 1.1-6.4 2.6-12.8 3.9-19.1-7.4 3-14.9 5.9-22.3 8.9-2.6 1-5.2 2.1-7.8 3.1 10.8-48.6 62.4-66.1 99.6-33.9 13.9 12 27.1 24.8 41.5 36 5.3 4.1 12.4 13.3 20.2 5.8 19.4-18.9 43.5-29.6 67.3-41.1 45.7-11.7 91.3-12.2 137-.1 12.4 6 27.8 9.2 36.7 18.6 37.8 39.7 61.9 13 87.8-14.7 14.7-15.7 31.8-29.7 55.9-21.1 23.6 8.5 42.3 22.8 48.3 49-8.6 3.5-11.4-6.3-17.8-7.7-3.8-.8-7.7-1.6-11.6-2.4-.2 1.4-.9 3.1-.5 4.3 16.6 44.2-17.7 43.2-43.7 48.5-10.8 2.2-22.2 1.5-33.3 2.1 8 12.1 21.7 14.8 33.6 20.4 5.1 2.4 10.3 4.4 15.5 6.6-5.9 2.5-11.7 6.5-17.8 7.1-18.1 1.7-18.3 5.9-6.8 19.5 14.3 17 26.2 36.3 37.4 55.6 30 51.6 29.7 51.8 68.2 2.8 1.6-1.7 3.6-3.2 4.9-5.1 53.6-84 54.5-176.7 46.8-271.5-1.4-17.4-17.3-37 7-53.6 38.7-26.5 62.4-64.4 73.4-110.1 10.2-33.9 11.2-68.6 4.7-103-12-63.5-52.7-95.9-104.1-78.1-66.4 23.1-116.6 72-168.9 116.8-3.6 3.1-2.1 5.1 1.2 7.5 16 11.7 31.8 23.7 47.7 35.6 19 25.7 38.4 51.1 44.2 83.8.4 2.4.7 4.8 1.1 7.2-2.1-1.7-4.5-3-6.2-5-21.6-24.9-46.7-44.7-78.2-55.5-22.5-12.1-46.1-20.6-71.2-24.9zm79.9 315.2c24.9 3.1 34.4-7.4 38.7-24.4.4-1.7-1.8-4-2.8-6.1-15.9 8.7-31.8 17.5-47.7 26.2 5.6 2 11.2 4.1 11.8 4.3zm-412.8.8c2.2-.7 8.7-2.9 15.3-5-15.8-8.8-31.6-17.6-47.6-26.1-.2-.1-3.4 3.2-3.1 4.4 3.9 16 11.8 27.7 35.4 26.7z" fill="#070807"/><path d="M607.4 1237.7c-4.1 7.2 6.4 17.5-5.1 22.8-18.4 8.3-37.8 23.5-55.5 21.9-20.3-1.8-27.3-61.8-10.9-77.5 7.5-7.2 7.1-10.4-2.7-13.5-7-2.2-14.1-4.9-20.3-8.7-16.5-10.1-27.9-19.2-34.3 11.8-3.3 16.2-30.2 8.1-46.1 12.3-7.2 1.9-5.8-9.3-7-14.5-4.3-18.8-13.2-39.4 15.4-48.6 6.7-2.2 1.1-6.4-1.5-9.1-9.4-10.1-18.1-21.2-28.7-30-9.2-7.5-8.4-40.7-34.3-14-3.9 4-27.1-5.6-36.2-14.3-4.1-4 4.6-21.1 7.2-32.3 2.3-9.9 9.8-8.9 17.2-8.9 22.9 0 6.5-15.5 8.5-23.4 2.1-8.3 1.2-17.4 1.5-26.2 2.2 7.2 3.9 14.6 6.6 21.7 23.5 62.5 74.3 96.1 132.9 116.4 155.7 53.9 310.7 53.8 460.9-20.2 47.4-23.4 84.1-59.4 94.7-114.9.3-1.4 1.3-2.7 1.9-4 .7 1.6 2 3.2 2 4.9 0 7.8 1.5 16.1-.9 23.2-5.8 17.4-2 21.9 17.4 24.1 14.6 1.6 12.3 23.1 17.7 35.6 3.7 8.5-6.4 7.9-10.8 9.5-13.6 5.1-27.7 18.7-41-1.7-3.7-5.8-5.3 1.4-7.1 3.8-8.3 11.1-15.7 22.9-24.7 33.4-11.6 13.5-32.1 22.7-.8 40.5 10.6 6-2 30.8-5.6 46.6-2 8.4-10.6 1.2-16 .8-19.2-1.3-40.6-.4-40-29.4.1-6.1-3.6-6.1-8.3-3.3-5.6 3.4-11.1 7.4-17.3 9.2-27.7 7.8-37.7 17.6-10.7 41.3 10.4 9.2-5.3 20.9-10.1 30.5-5.3 10.9-9.8 34.4-20.1 28.9-21.5-11.5-65.3-4.2-55.2-51 2.6-12.2-.3-18.7-14.2-12.5-2.6 1.1-5.6 1.4-8.4 1.9-49.8 9.7-50.1 9.9-28.4 55.9 5.2 11.1 4.6 18-5 26-13.4 11.2-27.3 22.7-37.7 36.6-17.5 23.4-31.5 19.5-47.8-.7-8.6-10.7-19.1-20.2-30-28.6-33.3-25.7-.8-47.5 4.3-70.3 2.3-10 1.9-11.2-7.5-12.3-13.4-1.5-27-3.5-39.7-7.5-18.3-6.5-24.9-1.9-18.3 17.8z" fill="#070707"/><path class="st2" d="M401.1 844.4c-34.8-43.6-44-95.8-50.7-149-6.5-51.9-2.1-103.5 6.2-154.8 1.5-9-1.4-14.4-9.2-20.1C307 491.3 280 452.7 270.5 403c6.6-16.6 13-33.3 19.8-49.8 26-62.3 37.4-68.4 85.8-40.5 39 22.5 76.3 47.9 114.3 72.1-11.7 22.7-31.4 40.7-38.2 66.2-2.2 8.2-4 16.5-6 24.7 5.7-5.3 11.3-10.6 17-15.9 19.4-18.2 40.2-34.1 65.8-42.7-1.7 7.1-3.1 14.3-5.2 21.3-26.3 84.2-3.4 149.6 69.5 193.2 19.1 11.4 40.7 18.8 61.2 28-23.7 11.6-47.8 22.2-67.3 41.1-7.7 7.5-14.8-1.7-20.2-5.8-14.4-11.2-27.7-24-41.5-36-37.2-32.2-88.8-14.6-99.6 33.9-1.4 16.1-5.3 32.8 9.1 45.5 4.2 3.7 9.6 6.1 14.5 9.2-21.6 29.5-31.7 64.9-48.4 96.9zM917.1 417.1c31.5 10.8 56.7 30.6 78.2 55.5 1.7 2 4.1 3.4 6.2 5-.4-2.4-.7-4.8-1.1-7.2-5.8-32.6-25.2-58.1-44.2-83.8 2.2-2.8 3.8-6.5 6.6-8.2 45.1-27.8 90.7-54.8 135.4-83.4 14.9-9.5 21.1-2.8 29.1 8.3 22.9 31.8 38.3 66.8 48.3 104.5-11 45.7-34.7 83.6-73.4 110.1-24.3 16.6-8.5 36.2-7 53.6 7.8 94.7 6.8 187.5-46.8 271.5-1.2 1.9-3.2 3.4-4.9 5.1-10.4-32.7-22.4-64.7-42.2-93.2-2.1-3-6.4-8.6-1.2-10.5 28.5-9.9 20.9-32.7 20-53.2-6-26.3-24.7-40.5-48.3-49-24.1-8.7-41.2 5.4-55.9 21.1-25.9 27.6-50 54.4-87.8 14.7-8.9-9.4-24.3-12.5-36.7-18.6 4.5-2.3 8.8-5.3 13.6-6.9 59.8-20.5 110.2-51.3 124.7-118.7 8.7-39.8-1.2-78.5-12.6-116.7z"/><path d="M917.1 417.1c11.4 38.1 21.3 76.8 12.8 116.7-14.5 67.4-64.9 98.2-124.7 118.7-4.7 1.6-9.1 4.6-13.6 6.9-45.7-12.2-91.3-11.6-137 .1-20.5-9.2-42-16.6-61.2-28-72.9-43.5-95.8-108.9-69.5-193.2 2.2-7 3.5-14.2 5.2-21.3 22.4-12.1 46.3-19.9 71.2-24.5-1.2 3-1.8 6.5-3.8 8.9-28.9 36.1-24.2 58.6 19.5 74.4 47.5 17.1 94.9 6.1 141.7-7 4.1-1.1 8.5-1 12.8-1.5-1.9 3.8-3.7 7.6-5.8 11.2-14.9 24.7-39.3 36.8-64.1 48.6-1.9.9-3.5 2.3-5.3 3.5 1.8.7 3.5 1.7 5.4 2.1 24.9 5 49.8 2.6 74-3.2 45-11 100.9-39.9 93.7-93.6-2.4-18.1-15.5-28.9-22.6-43.5 25.2 4.3 48.8 12.8 71.3 24.7z" fill="#dedede"/><path class="st2" d="M469.6 966c4.4-95 58.8-162.4 124.1-223.4 11.6-10.8 27-17.6 40.7-26.3-.8 43-.9 85.9 22.7 124.5 7.3 12.2 14.6 24.3 21.9 36.5-27.9 51-71.2 84.8-124.4 104.9-29.7 11.2-63.1 22.4-85-16.2zM769.7 875.8c6.1-10.6 12.3-21.3 18.4-31.9 1.5-2.2 3.3-4.3 4.6-6.6 19.9-37.3 20.1-78.4 22.8-119 57 28.5 93.9 76.6 124.4 130.2 20.3 35.7 41.6 71.5 36.7 115.4-10 26-30.1 30.4-54.7 26.3-45.4-7.5-82.1-31.2-114.4-62.3-15.6-15-33.1-29.1-37.8-52.1z"/><path class="st4" d="M845.9 392.4c7.1 14.7 20.2 25.4 22.6 43.5 7.2 53.7-48.7 82.7-93.7 93.6-24.2 5.9-49.1 8.3-74 3.2-1.9-.4-3.6-1.4-5.4-2.1 1.7-1.2 3.4-2.6 5.3-3.5 24.7-11.8 49.2-23.9 64.1-48.6 2.2-3.6 3.9-7.5 5.8-11.2-4.3.5-8.7.3-12.8 1.5-46.8 13-94.2 24.1-141.7 7-43.7-15.8-48.5-38.3-19.5-74.4 1.9-2.4 2.5-5.9 3.8-8.9 81.7-21.1 163.6-21.2 245.5-.1z"/><path class="st5" d="M1175.6 407.9c-10-37.7-25.4-72.7-48.3-104.5-8-11.1-14.2-17.8-29.1-8.3-44.6 28.5-90.3 55.5-135.4 83.4-2.8 1.7-4.4 5.5-6.6 8.2-15.9-11.9-31.7-23.9-47.7-35.6-3.3-2.4-4.8-4.5-1.2-7.5 52.3-44.8 102.6-93.7 168.9-116.8 51.4-17.9 92.1 14.6 104.1 78.1 6.5 34.4 5.5 69-4.7 103zM490.4 384.7c-38-24.1-75.3-49.6-114.3-72.1-48.4-27.9-59.8-21.8-85.8 40.5-6.9 16.5-13.2 33.2-19.8 49.8-12.5-57.2-15.4-113.6 27.2-160.5 27.2-30 61.3-24.1 93.6-7.8C446 262.2 492.2 301.8 537.8 342c2.3 2 6.9 4.4 2.7 7.5-16.4 12.1-33.3 23.6-50.1 35.2z"/><path class="st4" d="M815.4 718.2c-2.7 40.6-2.8 81.7-22.8 119-1.3 2.3-3 4.4-4.6 6.6 1.7-21.8-10.8-29-30-29.1-21.9-.1-43.8.2-65.8-.2-18.7-.3-33 4.8-35.3 26.3-23.5-38.6-23.5-81.5-22.7-124.5 60.9-31.5 121.2-31.3 181.2 1.9z"/><path class="st6" d="M769.7 875.8c4.7 23 22.2 37.2 37.7 52.1 32.3 31.1 69 54.8 114.4 62.3 24.7 4.1 44.7-.3 54.7-26.3 10.4 57.5-31.3 96.4-87.6 81.9-51.5-13.2-99.1-34.1-135.7-73.8-28.1-30.4-19.5-74.6 16.5-96.2zM469.6 966c21.9 38.6 55.3 27.4 85 16.2 53.1-20.1 96.5-53.8 124.4-104.9 43 37.8 43 75.7-2.1 111-39.3 30.9-83.1 54.5-133.7 59.1-51.6 4.6-80.9-29.5-73.6-81.4z"/><path class="st7" d="M401.1 844.4c16.7-32.1 26.7-67.4 48.4-97-4.9-3-10.2-5.4-14.5-9.2-14.4-12.7-10.5-29.4-9.1-45.5 2.6-1 5.2-2.1 7.8-3.1 7.4-3 14.9-5.9 22.3-8.9-1.3 6.4-2.8 12.7-3.9 19.1-2.4 14.2 5.2 23.3 17.6 26.9 14 4.1 28.6 5.7 43.1 8 6.8 1.1 13.9 1.2 20.8 1.7-6.5 4.7-13 9.3-19.6 13.9-.7.5-1.5.7-2.2 1-9.1 3.7-18.2 7.5-27.3 11.2 9.8 3.4 19.5 7.3 29.5 10.1 5.9 1.6 7 2.7 2.4 7.5-27.2 29.4-46 64.2-63.1 99.9-5.7 11.8-9.8 10.7-17.8 3.2-12.7-11.6-26.4-22.6-34.4-38.8zM1020.2 691.3c.8 20.5 8.5 43.3-20 53.2-5.2 1.8-.9 7.4 1.2 10.5 19.8 28.5 31.8 60.5 42.2 93.2-38.6 49-38.2 48.8-68.2-2.8-11.2-19.3-23.1-38.6-37.4-55.6-11.5-13.6-11.3-17.8 6.8-19.5 6.1-.6 11.9-4.6 17.8-7.1-5.2-2.2-10.4-4.2-15.5-6.6-11.9-5.6-25.6-8.3-33.6-20.4 11.1-.6 22.5.2 33.3-2.1 25.9-5.4 60.3-4.4 43.7-48.5-.4-1.2.3-2.8.5-4.3 3.9.8 7.7 1.5 11.6 2.4 6.3 1.3 9.1 11.2 17.6 7.6z"/><path class="st2" d="M661.4 1024.5c13-11.4 27.4-21.6 38.5-34.6 16.1-18.9 28.5-22.5 46.1-1.1 10.8 13.1 27.4 21.5 40.9 32.5 8 6.5 12.5 14.3.9 22.1-32-30.6-68.3-21.7-104.8-11.5-8.5 2.5-17.1 2.8-21.6-7.4z"/><path class="st6" d="M661.4 1024.5c4.5 10.2 13 9.9 21.6 7.5 36.5-10.2 72.8-19.2 104.8 11.5-21.4 20.8-105.3 22.5-127.7 2.6-9.3-8.4-8.8-17.4 1.3-21.6z"/><path class="st8" d="M925.8 707.6c-.5-.2-6.2-2.2-11.9-4.3 15.9-8.7 31.8-17.5 47.7-26.2 1 2 3.3 4.4 2.8 6.1-4.2 17-13.8 27.4-38.6 24.4zM513 708.4c-23.6 1-31.5-10.7-35.4-26.7-.3-1.2 2.9-4.6 3.1-4.4 15.9 8.5 31.8 17.3 47.6 26.1-6.6 2.1-13.2 4.3-15.3 5z"/></svg>