<svg width="20" height="20" fill="none" xmlns="http://www.w3.org/2000/svg"><circle cx="10" cy="10" r="10" fill="url(#paint0_linear_2322_6170)"/><path fill-rule="evenodd" clip-rule="evenodd" d="M4.234 9.82c-.44.32-1.58 5.4.38 5.7 1.005.154 1.833-1.106 2.38-2.44.306-.747.513-1.503.64-2.08.343 1.03 1.175 3.021 1.98 3.51a.747.747 0 00.26.102c1.085.42 2.262.762 3.12.788 1.256.038 1.85-.168 2.348-.341l.172-.059c.432-.144.687-.727.76-1v-1.04l-.4-.54c-.28-.28-.852-.856-.9-.92-.048-.064-.073-.267-.08-.36l-1.32-2.2c-1.12-1.38-1.86-1.793-2.32-1.76a.988.988 0 00-.5.2c-.98-2.36-2.487-2.98-3.12-2.88-.304.048-.487.407-.54.6-.24-.18-1.7-.54-2.42-.08-.296.19-.22.727-.14.98-.32.02-1.64.4-1.8 1.38-.149.91.946 1.677 1.583 2.123l.137.097-.22.22z" fill="#fff"/><path d="M7.634 11a12.956 12.956 0 01-.64 2.08c.142.258 1.284.89 2.621 1.43-.806-.489-1.638-2.48-1.98-3.51z" fill="#DAD8D6"/><ellipse cx="15.754" cy="13.12" rx="1.56" ry=".96" fill="#4A22FF"/><path d="M4.034 9.78V9.4l4.76.28-.04.4-4.72-.3zM13.154 9.72h-1.6v.4h1.6v-.4z" fill="#000"/><path fill-rule="evenodd" clip-rule="evenodd" d="M10.214 11.36a1.54 1.54 0 00.81-2.85l-1.605 2.63c.232.14.504.22.795.22zm-.96-.335l1.593-2.61a1.54 1.54 0 00-1.592 2.61zM14.454 11.36a1.54 1.54 0 00.81-2.85l-1.604 2.63c.232.14.503.22.794.22zm-.959-.335l1.592-2.61a1.54 1.54 0 00-1.592 2.61z" fill="#000"/><path d="M15.264 8.51a1.532 1.532 0 00-.177-.094l-1.592 2.61c.052.04.107.079.165.114l1.604-2.63z" fill="#fff"/><defs><linearGradient id="paint0_linear_2322_6170" x1="10" y1="0" x2="10" y2="20" gradientUnits="userSpaceOnUse"><stop stop-color="#FE8C05"/><stop offset="1" stop-color="#FF0487"/></linearGradient></defs></svg>