<svg width="1033" height="1033" fill="none" xmlns="http://www.w3.org/2000/svg"><path fill="#fff" d="M0 0h1033v1033H0z"/><path d="M382.119 162.598c80.703-28.054 171.629-28.092 253.863-5.034 107.067 30.859 197.413 105.874 244.676 200.028 13.036 26.824 25.494 54.801 26.735 84.662-60.175-32.397-126.145-53.418-192.28-72.556-105.742-35.395-216.45-59.951-316.605-108.642-23.259-12.913-52.974-26.171-59.348-53.111-2.524-23.327 24.004-36.316 42.959-45.347zM138.396 389.22c23.383-58.875 61.707-113.561 113.771-154.105 13.243 101.11 59.596 198.799 136.077 272.316 91.795 88.504 222.493 142.883 355.508 140.808 52.809 1.537 104.418-9.8 155.943-18.946-50.698 170.053-251.38 282.922-437.328 255.752-112.239-13.297-215.87-75.016-278.363-162.175-70.605-96.229-88.319-224.047-45.608-333.612v-.038z" fill="#5493F7"/><path d="M711.016 362.78c66.094 19.138 132.105 40.159 192.28 72.517l4.056 1.999c5.587 39.006 9.643 78.781 2.194 117.788-30.212-11.914-54.796-32.82-80.455-51.343-49.333-38.161-99.741-81.779-118.075-140.961z" fill="#0D3BA5"/><path d="M929.41 726.636H517.411 929.41zm-21.438-104.914H538.849h369.123zm14.651 34.971H524.198h398.425zm-317.184 209.79h235.984-236.025.041zM723.431 516.5c-4.056 0-8.111.154-12.126.384h24.211a225.465 225.465 0 00-12.085-.384zm206.062 175.164H517.369h412.124z" fill="#C42126"/><path d="M784.6 586.75h98.789c-11.756-13.277-25.368-25.038-40.476-34.971h-74.205c6.167 10.069 11.423 21.905 15.892 34.971z" fill="#E7E7E7"/><path d="M768.708 551.817h74.205c-31.547-20.799-68.769-32.919-107.397-34.971h-6.373c18.789 2.19 27.397 15.103 39.565 34.971z" fill="#DC3027"/><path d="M922.665 656.693a182.905 182.905 0 00-14.692-34.971H794.285c2.317 11.221 4.138 22.981 5.463 34.971h122.917z" fill="#E7E7E7"/><path d="M787.911 621.722h120.02c-6.791-12.45-15.02-24.176-24.542-34.972H778.516c3.725 10.876 6.829 22.597 9.395 34.972z" fill="#DC3027"/><path d="M804.135 726.597h125.276a178.99 178.99 0 00.083-34.971H804.135a492.494 492.494 0 010 34.971z" fill="#E7E7E7"/><path d="M929.535 691.664a179.11 179.11 0 00-6.912-34.971H794.492a482.371 482.371 0 012.524 34.971h132.519z" fill="#DC3027"/><path d="M792.133 796.54h115.302c6.125-11.068 11.174-22.751 14.899-34.971H797.72c-1.407 12.028-3.27 23.749-5.587 34.971z" fill="#E7E7E7"/><path d="M922.334 761.569a178.501 178.501 0 007.077-34.972H800.203a437.52 437.52 0 01-2.649 34.972h124.78z" fill="#DC3027"/><path d="M841.465 866.444c15.313-9.876 29.136-21.636 41.055-34.971h-97.092c-4.552 13.181-9.932 24.98-16.14 34.971h72.177z" fill="#E7E7E7"/><path d="M781.786 831.511H882.52c9.651-10.78 18.005-22.506 24.914-34.971H791.263a286.542 286.542 0 01-9.519 34.971h.042zm-58.355 69.29c43.869 0 84.511-12.682 117.992-34.318h-74.909c-13.244 21.252-22.059 34.318-43.083 34.318z" fill="#DC3027"/><path d="M775.578 551.817H603.949c-15.122 9.931-28.748 21.692-40.517 34.972H791.47a176.088 176.088 0 00-15.892-34.972z" fill="#F3F4F5"/><path d="M603.949 551.817h171.629c-12.167-19.868-27.646-32.781-46.435-34.971h-17.796c-38.628 2.052-75.85 14.172-107.398 34.971z" fill="#E73625"/><path d="M524.24 656.693h282.047a391.438 391.438 0 00-5.463-34.971H538.849a182.67 182.67 0 00-14.651 34.971h.042z" fill="#F3F4F5"/><path d="M563.474 586.75c-9.519 10.761-17.714 22.482-24.584 34.972h261.934a290.483 290.483 0 00-9.395-34.972H563.474z" fill="#E73625"/><path d="M516.5 708.65c0 6.072.331 12.068.952 17.947h291.359a492.494 492.494 0 000-34.971H517.369c-.538 5.649-.869 11.298-.869 17.024z" fill="#F3F4F5"/><path d="M517.328 691.664h291.524a459.63 459.63 0 00-2.566-34.971H524.198a178.776 178.776 0 00-6.829 34.971h-.041z" fill="#E73625"/><path d="M806.203 761.569H524.529c3.725 12.22 8.774 23.903 14.899 34.971h261.147c2.359-11.222 4.221-22.943 5.587-34.971h.041z" fill="#F3F4F5"/><path d="M524.529 761.569h281.634c1.324-11.452 2.193-23.135 2.648-34.972H517.452c1.159 12.029 3.601 23.712 7.036 34.972h.041z" fill="#E73625"/><path d="M605.439 866.444h169.518a172.213 172.213 0 0016.141-34.971H564.343c11.919 13.335 25.742 25.095 41.096 34.971z" fill="#F3F4F5"/><path d="M539.428 796.54c6.953 12.49 15.313 24.211 24.914 34.971h226.797c3.725-10.875 6.87-22.596 9.477-34.971H539.428zm175.229 104.069l1.242.038c2.483.115 5.007.154 7.532.154 21.024 0 38.199-13.066 51.484-34.318H605.48c31.247 20.137 68.701 32.589 109.26 34.126h-.083z" fill="#E73625"/><path d="M719.169 516.615c-50.891.97-99.61 19.325-136.84 51.557-37.23 32.231-60.358 76.075-64.96 123.146h201.8V516.615z" fill="#283991"/><path d="M557.887 625.372l3.186 8.993h10.181l-8.277 5.611 3.187 8.992-8.277-5.572-8.236 5.572 3.145-8.992-8.277-5.611h10.222l3.187-8.993h-.041zm0 31.859l3.186 8.993h10.181l-8.277 5.572 3.187 9.031-8.277-5.572-8.236 5.572 3.145-9.031-8.277-5.572h10.222l3.187-8.993h-.041zm34.35-79.627l3.146 8.992h10.181l-8.278 5.611 3.187 8.993-8.277-5.572-8.277 5.572 3.186-9.031-8.277-5.573h10.223l3.145-8.992h.041zm0 31.82l3.146 9.031h10.181l-8.278 5.572 3.187 9.031-8.277-5.572-8.277 5.572 3.186-9.031-8.277-5.572h10.223l3.145-9.031h.041zm0 31.858l3.146 9.032h10.181l-8.278 5.572 3.187 8.993-8.277-5.573-8.277 5.611 3.186-9.031-8.277-5.572h10.223l3.145-9.032h.041zm-60.382 23.597l-3.146-8.993 8.278-5.572h-10.223l-.207-.654a172.993 172.993 0 00-3.104 9.761l.166-.115 8.277 5.611-.041-.038zm17.796-47.769l8.277-5.572 8.277 5.572-3.186-8.993 8.277-5.572h-10.223l-3.186-9.031-3.187 9.031h-3.725a198.66 198.66 0 00-2.069 2.959l3.849 2.613-3.146 8.993h.042zm42.586-53.341l8.236 5.572-3.145-8.992 8.277-5.611h-5.918a208.167 208.167 0 00-14.485 11.068l-1.242 3.535 8.277-5.572zm26.032-10.376l8.277-5.534 8.236 5.572-3.145-9.031 8.277-5.572H629.65l-.413-1.191a209.564 209.564 0 00-10.223 5.149l2.401 1.614-3.146 9.031v-.038zm8.236 8.262l3.145 9.031h10.223l-8.277 5.573 3.186 9.031-8.277-5.573-8.277 5.573 3.187-9.031-8.278-5.573h10.223l3.145-9.031zm0 31.859l3.145 9.031h10.223l-8.277 5.572 3.186 8.993-8.277-5.572-8.277 5.572 3.187-8.993-8.278-5.572h10.223l3.145-9.031zm0 31.858l3.145 8.993h10.223l-8.277 5.611 3.186 8.992-8.277-5.572-8.277 5.572 3.187-8.992-8.278-5.611h10.223l3.145-8.993zm0 31.859l3.145 8.993h10.223l-8.277 5.572 3.186 9.031-8.277-5.572-8.277 5.572 3.187-9.031-8.278-5.572h10.223l3.145-8.993zm34.309-111.524l3.146 9.069h10.222l-8.277 5.573 3.145 8.992-8.277-5.572-8.236 5.572 3.145-8.992-8.277-5.611h10.264l3.145-8.993v-.038zm0 31.897l3.146 8.992h10.222l-8.277 5.611 3.145 8.993-8.277-5.572-8.236 5.572 3.145-9.031-8.277-5.573h10.264l3.145-8.992zm0 31.82l3.146 9.031h10.222l-8.277 5.572 3.145 9.031-8.277-5.572-8.236 5.572 3.145-9.031-8.277-5.572h10.264l3.145-9.031zm0 31.858l3.146 9.032h10.222l-8.277 5.572 3.145 8.993-8.277-5.573-8.236 5.611 3.145-9.031-8.277-5.572h10.264l3.145-9.032zm34.309-111.447l3.146 8.993h10.222l-8.277 5.572 3.145 9.031-8.236-5.572-8.277 5.572 3.187-9.031-8.277-5.572h10.222l3.145-8.993zm0 31.82l3.146 9.031h10.222l-8.277 5.573 3.145 9.031-8.236-5.573-8.277 5.573 3.187-9.031-8.277-5.573h10.222l3.145-9.031zm0 31.859l3.146 9.031h10.222l-8.277 5.572 3.145 8.993-8.236-5.572-8.277 5.572 3.187-8.993-8.277-5.572h10.222l3.145-9.031zm0 31.858l3.146 8.993h10.222l-8.277 5.611 3.145 8.992-8.236-5.572-8.277 5.572 3.187-8.992-8.277-5.611h10.222l3.145-8.993zm0 31.859l3.146 8.993h10.222l-8.277 5.572 3.145 9.031-8.236-5.572-8.277 5.572 3.187-9.031-8.277-5.572h10.222l3.145-8.993z" fill="#EFEFEF"/></svg>